<svg width="24" height="24" viewBox="0 0 24 24" fill="none" xmlns="http://www.w3.org/2000/svg">
<path fill-rule="evenodd" clip-rule="evenodd" d="M12.0833 3.18317C9.87711 3.17978 7.7475 3.99585 6.10341 5.47465C4.45932 6.95346 3.41668 8.99074 3.17571 11.1952C2.93475 13.3997 3.51246 15.616 4.7979 17.4184C6.08333 19.2208 7.98586 20.4822 10.1401 20.9605V15.4844H8.67483C8.40998 15.4842 8.15605 15.3783 7.96878 15.19C7.7815 15.0017 7.67616 14.7465 7.67588 14.4802V12.6803C7.67616 12.414 7.7815 12.1588 7.96878 11.9705C8.15605 11.7822 8.40998 11.6763 8.67483 11.6761H10.1201L10.0706 10.328V10.3068C10.0706 9.37454 10.2306 7.62856 11.5948 6.64763C12.0317 6.33335 12.4338 6.1323 12.8717 6.01484C13.3033 5.89844 13.7401 5.87199 14.2296 5.87199C15.0885 5.87199 15.6822 5.9577 16.0633 6.01273L16.2401 6.03812C16.598 6.08468 16.8611 6.39155 16.8611 6.74921V8.74175C16.8612 8.83964 16.8413 8.9365 16.8028 9.0264C16.7643 9.11631 16.7079 9.19737 16.6372 9.26462C16.5664 9.33188 16.4828 9.38392 16.3913 9.41756C16.2999 9.4512 16.2026 9.46572 16.1054 9.46025H16.1043C15.9601 9.4666 15.399 9.48882 14.9169 9.48882C14.5548 9.48882 14.3727 9.57242 14.2675 9.68459C14.1548 9.80628 14.0264 10.074 14.0264 10.674V11.6761H15.6296C15.7741 11.6762 15.917 11.7079 16.0482 11.7689C16.1794 11.8299 16.2959 11.9188 16.3897 12.0295C16.4834 12.1401 16.5522 12.2699 16.5913 12.4098C16.6303 12.5498 16.6387 12.6965 16.6159 12.8401L16.3443 14.6453C16.3052 14.8797 16.1848 15.0926 16.0045 15.2462C15.8241 15.3998 15.5954 15.4842 15.359 15.4844H14.0264V20.9594C16.1796 20.4802 18.0808 19.2184 19.3653 17.4163C20.6497 15.6143 21.2269 13.3988 20.986 11.1952C20.7451 8.99152 19.7031 6.95493 18.0601 5.47624C16.417 3.99756 14.2886 3.18096 12.0833 3.18317ZM2.08325 12.1776C2.08325 9.51151 3.13682 6.95459 5.01218 5.06935C6.88755 3.18411 9.43109 2.125 12.0833 2.125C14.7354 2.125 17.279 3.18411 19.1543 5.06935C21.0297 6.95459 22.0833 9.51151 22.0833 12.1776C22.0833 17.2188 18.3917 21.3933 13.578 22.1192C13.5031 22.1304 13.4266 22.1253 13.3539 22.1042C13.2811 22.083 13.2137 22.0463 13.1564 21.9966C13.099 21.9469 13.053 21.8853 13.0215 21.816C12.99 21.7468 12.9737 21.6715 12.9738 21.5954V14.9553C12.9738 14.815 13.0292 14.6804 13.1279 14.5812C13.2266 14.482 13.3605 14.4263 13.5001 14.4263H15.3127L15.5664 12.7342H13.5001C13.3605 12.7342 13.2266 12.6785 13.1279 12.5793C13.0292 12.4801 12.9738 12.3455 12.9738 12.2052V10.675C12.9738 9.95865 13.1211 9.36819 13.5001 8.96185C13.8864 8.54705 14.4138 8.43171 14.9169 8.43171C15.2254 8.43171 15.5706 8.42113 15.8075 8.41372V7.0455C15.2851 6.96732 14.7577 6.92877 14.2296 6.93016C13.7727 6.93016 13.4422 6.95662 13.1433 7.03704C12.8517 7.11534 12.5633 7.2529 12.2064 7.50792C11.3043 8.15764 11.1233 9.39147 11.1222 10.2983L11.1927 12.1861C11.1953 12.2572 11.1835 12.328 11.1582 12.3944C11.1329 12.4608 11.0946 12.5214 11.0454 12.5726C10.9963 12.6238 10.9374 12.6645 10.8723 12.6922C10.8072 12.72 10.7372 12.7343 10.6664 12.7342H8.72957V14.4263H10.6664C10.806 14.4263 10.9399 14.482 11.0386 14.5812C11.1373 14.6804 11.1927 14.815 11.1927 14.9553V21.5954C11.1928 21.6715 11.1765 21.7468 11.145 21.816C11.1135 21.8853 11.0675 21.9469 11.0101 21.9966C10.9528 22.0463 10.8854 22.083 10.8126 22.1042C10.7399 22.1253 10.6634 22.1304 10.5885 22.1192C5.77483 21.3933 2.08325 17.2198 2.08325 12.1776Z" fill="#67CBE2"/>
</svg>
