<svg width="24" height="24" viewBox="0 0 24 24" fill="none" xmlns="http://www.w3.org/2000/svg">
<path d="M17 8.5C17.8284 8.5 18.5 7.82843 18.5 7C18.5 6.17157 17.8284 5.5 17 5.5C16.1716 5.5 15.5 6.17157 15.5 7C15.5 7.82843 16.1716 8.5 17 8.5Z" fill="#67CBE2"/>
<path d="M17.4444 3C20.5111 3 23 5.48889 23 8.55556V17.4444C23 20.5111 20.5111 23 17.4444 23H8.55556C5.48889 23 3 20.5111 3 17.4444V8.55556C3 5.48889 5.48889 3 8.55556 3H13H17.4444Z" stroke="#67CBE2" stroke-width="2" stroke-linecap="round" stroke-linejoin="round"/>
<path d="M13.0001 8.55566C15.4557 8.55566 17.4446 10.5446 17.4446 13.0001C17.4446 15.4557 15.4557 17.4446 13.0001 17.4446C10.5446 17.4446 8.55566 15.4557 8.55566 13.0001C8.55566 10.5446 10.5446 8.55566 13.0001 8.55566Z" stroke="#67CBE2" stroke-width="2" stroke-linecap="round" stroke-linejoin="round"/>
</svg>
